inDegrees=yes
name=ik_S53_A09_T01
DataType=double
version=3
OpenSimVersion=4.3-2021-08-27-4bc7ad9
endheader
time	pelvis_tilt	pelvis_list	pelvis_rotation	pelvis_tx	pelvis_ty	pelvis_tz	hip_flexion_r	hip_adduction_r	hip_rotation_r	knee_angle_r	knee_angle_r_beta	ankle_angle_r	subtalar_angle_r	mtp_angle_r	hip_flexion_l	hip_adduction_l	hip_rotation_l	knee_angle_l	knee_angle_l_beta	ankle_angle_l	subtalar_angle_l	mtp_angle_l	lumbar_extension	lumbar_bending	lumbar_rotation	arm_flex_r	arm_add_r	arm_rot_r	elbow_flex_r	pro_sup_r	wrist_flex_r	wrist_dev_r	arm_flex_l	arm_add_l	arm_rot_l	elbow_flex_l	pro_sup_l	wrist_flex_l	wrist_dev_l
12.08333333333351	-5.780623864922474	-6.076007106471264	34.57837151510228	0	0.9399999999999999	0	40.58554382345261	-10.58714189971967	-10.24404604247673	51.71108895722468	0.9025287620952519	0	0	0	40.58554382345261	-10.58714189971967	-10.24404604247673	51.71108895722468	0.9025287620952519	0	0	0	-6.261912921384465	-1.814832889806224	3.705461384496631	69.67468481352984	2.007212198374608	8.111946303127548	42.32763825494589	111.8739269082751	0	0	57.15962463807998	-18.19062306918626	14.22304598739581	47.3100273067616	87.74241530663684	0	0
12.10000000000018	-5.784829120779421	-6.089257379939073	34.66692629118097	0	0.9399999999999999	0	40.5880135721394	-10.5859997609891	-10.24374143302053	51.71232124615552	0.9025502695944309	0	0	0	40.5880135721394	-10.5859997609891	-10.24374143302053	51.71232124615552	0.9025502695944309	0	0	0	-6.282945569119692	-1.806074529539548	3.609161181677085	69.76554074918376	2.200118342403337	8.199653208156114	42.23361542678825	109.6834772011116	0	0	57.16188852626124	-18.20417310829216	14.23742000037466	47.36267836090337	87.62889656221289	0	0
12.11666666666685	-5.776151172299001	-6.122615578573498	34.68610289255113	0	0.9399999999999999	0	40.58912047367622	-10.5854932443085	-10.24360584014036	51.71287869601585	0.9025599989299085	0	0	0	40.58912047367622	-10.5854932443085	-10.24360584014036	51.71287869601585	0.9025599989299085	0	0	0	-6.298130470831463	-1.832204998100005	3.574248378327132	69.81978327879108	2.236658869419831	8.145779912327381	42.4744040509278	108.5897583223162	0	0	57.17000438994062	-18.254801871172	14.31331639579831	47.40746098737637	87.61239291128324	0	0
12.13333333333352	-5.788209805710805	-6.124711157031057	34.74995796033058	0	0.9399999999999999	0	40.59032526363551	-10.58494023336278	-10.24345793811252	51.71348332219507	0.9025705516474796	0	0	0	40.59032526363551	-10.58494023336278	-10.24345793811252	51.71348332219507	0.9025705516474796	0	0	0	-6.313571096595612	-1.819423497079597	3.533525932910233	70.21004077322468	2.421317073150485	8.083302553677814	42.37377939172674	107.6074998813967	0	0	57.13474239004877	-18.25430330731906	14.34594586438457	47.51531618110799	87.53801637109721	0	0
12.15000000000018	-5.793232326330154	-6.134493031081486	34.75943859360004	0	0.9399999999999999	0	40.59126503448547	-10.58451065859839	-10.24334287735681	51.71395662086162	0.9025788122675562	0	0	0	40.59126503448547	-10.58451065859839	-10.24334287735681	51.71395662086162	0.9025788122675562	0	0	0	-6.324201699930149	-1.823068588658403	3.526814266254865	70.57385750019164	2.464720231563968	7.890914916192366	42.42616734418545	107.0580735700154	0	0	57.09091359326092	-18.27609862539316	14.3344291707494	47.59084402320309	87.5530629802939	0	0
12.16666666666685	-5.828611495615347	-6.176115776491694	34.74701603740139	0	0.9399999999999999	0	40.59235844533517	-10.58401095799722	-10.24320901132787	51.71450714698612	0.9025884207610468	0	0	0	40.59235844533517	-10.58401095799722	-10.24320901132787	51.71450714698612	0.9025884207610468	0	0	0	-6.375962136578394	-1.839231198561057	3.542312593177531	71.1362910200385	2.470373438230375	7.666995510621224	42.35788721921413	106.5107979643776	0	0	57.11009495161483	-18.30704830275593	14.35037117790795	47.75829570883609	87.5531514277903	0	0
12.18333333333352	-5.853960061932138	-6.19865024785968	34.74275746463763	0	0.9399999999999999	0	40.59360716864196	-10.58343981082699	-10.24305603050425	51.7151350345538	0.9025993794664353	0	0	0	40.59360716864196	-10.58343981082699	-10.24305603050425	51.7151350345538	0.9025993794664353	0	0	0	-6.407245961694295	-1.847948529806265	3.572059695697495	71.76447531619579	2.446100202443871	7.43094028313045	42.09991643006699	105.8348004490573	0	0	57.08556071891023	-18.34132941005778	14.41097151926246	47.86894268320073	87.49064184239327	0	0
12.20000000000019	-5.87454273856201	-6.217068860414753	34.72233118557104	0	0.9399999999999999	0	40.59487319063861	-10.5828610757899	-10.24290096749279	51.71577154465594	0.9026104886634398	0	0	0	40.59487319063861	-10.5828610757899	-10.24290096749279	51.71577154465594	0.9026104886634398	0	0	0	-6.432002040382353	-1.856653147873653	3.605488821905495	72.47060315555888	2.41778444684321	7.217135277737906	41.70390492989508	105.0794078932139	0	0	57.14479922080432	-18.34170261226332	14.44075351093779	47.93834523697869	87.49351115261186	0	0
12.21666666666685	-5.935800663451921	-6.274679454308282	34.8087499432078	0	0.9399999999999999	0	40.59683682185054	-10.58196622683982	-10.24266090980825	51.71676079449207	0.902627754330205	0	0	0	40.59683682185054	-10.58196622683982	-10.24266090980825	51.71676079449207	0.902627754330205	0	0	0	-6.518639438697265	-1.86348514813458	3.580239889742374	73.2548783077732	2.54385602236782	7.146753244666315	41.04898617399046	105.0900195083062	0	0	57.35149810426498	-18.30328851598707	14.50556991816099	47.94414805685781	87.50209301499473	0	0
12.23333333333352	-5.963803290551475	-6.321922274689966	34.81255387266822	0	0.9399999999999999	0	40.59847597136802	-10.5812139406223	-10.2424595505488	51.7175804277171	0.9026420596286405	0	0	0	40.59847597136802	-10.5812139406223	-10.2424595505488	51.7175804277171	0.9026420596286405	0	0	0	-6.559761219189758	-1.904056417057587	3.680124599082057	73.46593025552994	2.168683928841273	6.821015753681452	41.14742700835556	104.5952428043014	0	0	57.39879733802	-18.30333339700331	14.59022972906442	48.11852712871438	87.6055948576337	0	0
12.25000000000019	-6.006490210819961	-6.360768606691969	34.78863634839129	0	0.9399999999999999	0	40.59988840143723	-10.58056875411147	-10.24228655712033	51.71828936809499	0.9026544329724351	0	0	0	40.59988840143723	-10.58056875411147	-10.24228655712033	51.71828936809499	0.9026544329724351	0	0	0	-6.605054061611778	-1.935832508601253	3.818586964352278	74.41488464494549	1.929119049323861	6.395289814560855	40.38933281479486	104.6228090209995	0	0	57.42439935647693	-18.25912095427054	14.63738158703111	48.31100187244986	87.71956785534339	0	0
